<?xml version="1.0" encoding="utf-8"?>
<!-- Generator: Adobe Illustrator 16.0.0, SVG Export Plug-In . SVG Version: 6.00 Build 0)  -->
<!DOCTYPE svg PUBLIC "-//W3C//DTD SVG 1.1//EN" "http://www.w3.org/Graphics/SVG/1.1/DTD/svg11.dtd">
<svg version="1.1" id="Capa_1" xmlns="http://www.w3.org/2000/svg" xmlns:xlink="http://www.w3.org/1999/xlink" x="0px" y="0px"
	 width="248.692px" height="56.626px" viewBox="-34.013 -6.775 248.692 56.626"
	 enable-background="new -34.013 -6.775 248.692 56.626" xml:space="preserve">
<g>
	<path fill="#B8BABB" d="M52.476,17.079c0,0-1.99-14.666,21.893-18.174c0,0,0.523,23.464-14.247,23.778
		c0,0,4.924-9.847,3.667-11.104C62.532,10.323,52.476,17.079,52.476,17.079z"/>
	<path fill="#AED26E" d="M41.119,23.295c0,0-18.578-0.564-18.233-30.07c0,0,29.202,4.115,26.687,21.985
		c0,0-11.243-7.927-13.049-6.667C34.717,9.805,41.119,23.295,41.119,23.295z"/>
	<g>
		<path fill="#AED26E" d="M-32.406,40.984c0.034,4.645,2.861,7.402,9.564,7.402c6.109,0,8.343-2.62,8.343-5.553
			c0-2.792-1.327-4.049-6.563-5.131l-4.642-0.978c-5.446-1.151-7.54-2.757-7.54-6.526c0-3.735,3.246-6.458,9.425-6.458
			c6.283,0,10.263,2.305,10.437,7.609h-1.605c-0.21-2.861-1.815-6.213-8.378-6.213c-6.074,0-8.063,2.234-8.063,5.096
			c0,2.653,1.153,3.979,5.899,4.922l5.131,1.013c4.992,0.977,7.715,2.583,7.715,6.562c0,3.389-2.234,7.054-10.019,7.054
			c-8.168,0-11.311-3.528-11.311-8.799H-32.406z"/>
		<path fill="#AED26E" d="M-7.835,24.299h1.605V38.61l17.943-14.311h2.548L1.346,34.596l13.823,14.628h-2.234L0.088,35.609
			l-6.318,5.026v8.589h-1.605V24.299z"/>
		<path fill="#AED26E" d="M18.516,24.299h1.606v24.925h-1.606V24.299z"/>
		<path fill="#AED26E" d="M26.09,24.299h2.024L46.72,46.988h0.07V24.299h1.606v24.925h-2.025l-18.605-22.69h-0.071v22.69H26.09
			V24.299z"/>
	</g>
	<path fill="#B8BABB" d="M76.642,24.299h4.836v24.925h-3.487V28.558h-0.066l-9.146,20.666h-3.092l-9.113-20.247h-0.066v20.247H53.02
		V24.299h4.902l9.311,20.664L76.642,24.299z"/>
	<path fill="#B8BABB" d="M85.424,24.299h18.885v3.211H88.912v7.226h14.935v3.211H88.912v8.066h15.725v3.211H85.424V24.299z"/>
	<path fill="#B8BABB" d="M107.466,24.299h12.912c7.633,0,11.133,4.887,11.133,12.112c0,6.945-3.107,12.812-10.92,12.812h-13.125
		V24.299z M120.413,46.013c6.207,0,7.314-5.099,7.314-9.532c0-4.397-1.461-8.971-8.025-8.971h-8.455v18.503H120.413z"/>
	<path fill="#B8BABB" d="M133.979,24.299h3.488v24.925h-3.488V24.299z"/>
	<path fill="#B8BABB" d="M163.894,33.27c-0.602-3.455-3.523-6.388-9.148-6.388c-6.334,0-10.342,3.386-10.342,10.192
		c0,4.712,2.736,9.563,10.119,9.563c4.684,0,8.246-2.094,9.371-6.946h3.971c-0.637,5.518-5.734,10.16-13.379,10.16
		c-6.748,0-14.057-3.455-14.057-13.161c0-7.261,4.873-13.02,14.02-13.02c5.359,0,12.742,2.129,13.416,9.599H163.894z"/>
	<path fill="#B8BABB" d="M186.726,41.961h-12.277l-3.193,7.263h-4l11.334-24.925h4.244l11.332,24.925h-4.244L186.726,41.961z
		 M180.554,27.72l-4.705,11.03h9.512L180.554,27.72z"/>
	<path fill="#B8BABB" d="M195.265,24.299h3.486v21.714h15.928v3.211h-19.414V24.299z"/>
</g>
</svg>
